# xmcd
#
# Track frame offsets:
#	150
#	18832
#	37945
#	58320
#	79825
#
# Disc length: 1406 seconds
#
# Revision: 2
# Processed by: cddbd v1.5.2PL0 Copyright (c) Steve Scherf et al.
# Submitted via: EasyCDDAExtractor 15.3.0.1
#
DISCID=34057c05
DTITLE=Gloria Estefan - Don't Let This Moment End
DYEAR=1998
DGENRE=Pop
TTITLE0=Don't Let This Moment End (Radio Edit)
TTITLE1=Don't Let This Moment End (Ballad Version)
TTITLE2=Don't Let This Moment End (7'' Remix Edit)
TTITLE3=Don't Let This Moment End (N&S Miami Remix Edit)
TTITLE4=The 70's ''Moment'' Medley (Edit)
EXTD=
EXTT0=
EXTT1=
EXTT2=
EXTT3=
EXTT4=
PLAYORDER=
